<?xml version="1.0" encoding="iso-8859-1"?>
<!-- Uploaded to: SVG Repo, www.svgrepo.com, Generator: SVG Repo Mixer Tools -->
<svg xmlns="http://www.w3.org/2000/svg" xmlns:xlink="http://www.w3.org/1999/xlink" version="1.1" id="Layer_1"  viewBox="0 0 439.91 439.91" xml:space="preserve" width="512" height="512">
<g>
	<polygon style="fill:#C3C6C8;" points="313.728,94.227 303.178,190.227 324.299,190.227 334.85,94.227  "/>
	<g>
		<polygon style="fill:#C3C6C8;" points="140.805,112.781 151.355,190.227 130.232,190.227 119.682,112.781   "/>
	</g>
	<path style="fill:#454F58;" d="M75.678,364.238C33.949,364.238,0,330.289,0,288.561s33.949-75.678,75.678-75.678   c41.729,0,75.678,33.949,75.678,75.678S117.406,364.238,75.678,364.238z M75.678,237.883C47.734,237.883,25,260.617,25,288.561   c0,27.943,22.734,50.678,50.678,50.678c27.943,0,50.678-22.734,50.678-50.678C126.355,260.617,103.621,237.883,75.678,237.883z"/>
	<path style="fill:#454F58;" d="M364.232,364.238c-41.728,0-75.678-33.949-75.678-75.678s33.949-75.678,75.678-75.678   c41.729,0,75.678,33.949,75.678,75.678S405.961,364.238,364.232,364.238z M364.232,237.883c-27.943,0-50.678,22.734-50.678,50.678   c0,27.943,22.734,50.678,50.678,50.678c27.943,0,50.678-22.734,50.678-50.678C414.91,260.617,392.176,237.883,364.232,237.883z"/>
	<path style="fill:#8BDC65;" d="M378.096,282.832l-42.555-103c-0.976-2.363-2.49-4.342-4.34-5.859   c-2.797-3.359-6.984-5.412-11.523-5.412H133.703c-5.377,0-10.342,2.877-13.016,7.543L59.02,283.758   c-2.66,4.643-2.645,10.35,0.037,14.977c2.684,4.629,7.629,7.478,12.979,7.478h123.338c3.66,0,7.133-1.336,9.818-3.662l0.002,0.002   l109.434-94.775l35.742,86.51c2.391,5.785,7.978,9.277,13.869,9.277c1.908,0,3.85-0.367,5.723-1.141   C377.617,299.26,381.26,290.488,378.096,282.832z M97.914,276.213l35.789-62.476l35.789,62.476H97.914z M199.33,267.943   l-39.746-69.383h119.861L199.33,267.943z"/>
	<path style="fill:#454F58;" d="M181.678,108.105c0-10.633-8.748-17.604-19.252-19.252c-20.23-3.176-40.248-9.746-60.748-9.746   c-14.359,0-26,11.641-26,26c0,14.359,11.641,26,26,26c12,0,58.666,0.502,69.129-5.664l-0.006-0.023   C177.232,122.303,181.678,115.732,181.678,108.105z"/>
	<path style="fill:#454F58;" d="M292.555,112.781c-10.248,0-18.555-8.307-18.555-18.555c0-10.248,8.307-18.555,18.555-18.555h32.674   c10.248,0,18.555,8.307,18.555,18.555c0,10.248-8.307,18.555-18.555,18.555H292.555z"/>
	<circle style="fill:#C3C6C8;" cx="194.955" cy="288.561" r="31.214"/>
	<path style="fill:#454F58;" d="M237.622,309.122h-40c-4.143,0-7.5-3.357-7.5-7.5s3.357-7.5,7.5-7.5h40c4.143,0,7.5,3.357,7.5,7.5   S241.765,309.122,237.622,309.122z"/>
</g>















</svg>