<?xml version="1.0" encoding="iso-8859-1"?>
<!-- Uploaded to: SVG Repo, www.svgrepo.com, Generator: SVG Repo Mixer Tools -->
<svg version="1.1" id="Layer_1" xmlns="http://www.w3.org/2000/svg" xmlns:xlink="http://www.w3.org/1999/xlink" 
	 viewBox="0 0 512.001 512.001" xml:space="preserve">
<polygon style="fill:#797882;" points="375.629,177.327 57.125,177.327 57.125,297.327 409.274,297.327 "/>
<rect x="57.125" y="177.331" style="fill:#ACACB2;" width="190.934" height="120"/>
<rect x="147.97" y="113.967" style="fill:#57565C;" width="73.995" height="50.467"/>
<rect x="185.44" y="113.967" style="fill:#2D2E30;" width="36.525" height="50.467"/>
<path style="fill:#9D2217;" d="M221.96,130.785h-73.995c-9.29,0-16.822-7.532-16.822-16.822s7.532-16.822,16.822-16.822h73.995
	c9.29,0,16.822,7.532,16.822,16.822S231.251,130.785,221.96,130.785z"/>
<rect x="76.19" y="56.21" style="fill:#57565C;" width="49.032" height="121.121"/>
<rect x="100.554" y="56.21" style="fill:#2D2E30;" width="24.673" height="121.121"/>
<path style="fill:#DE3205;" d="M125.222,73.028H76.19c-9.29,0-16.822-7.532-16.822-16.822S66.9,39.383,76.19,39.383h49.032
	c9.29,0,16.822,7.532,16.822,16.822S134.513,73.028,125.222,73.028z"/>
<path style="fill:#ACACB2;" d="M395.816,194.149H54.882c-9.29,0-16.822-7.532-16.822-16.822s7.532-16.822,16.822-16.822h340.934
	c9.29,0,16.822,7.532,16.822,16.822S405.107,194.149,395.816,194.149z"/>
<g>
	<path style="fill:#3E3E42;" d="M119.581,229.966h-11.148c-3.717,0-6.729-3.012-6.729-6.729V212.09c0-3.717,3.012-6.729,6.729-6.729
		h11.148c3.717,0,6.729,3.012,6.729,6.729v11.148C126.31,226.954,123.296,229.966,119.581,229.966z"/>
	<path style="fill:#3E3E42;" d="M160.605,229.966h-11.148c-3.717,0-6.729-3.012-6.729-6.729V212.09c0-3.717,3.012-6.729,6.729-6.729
		h11.148c3.717,0,6.729,3.012,6.729,6.729v11.148C167.334,226.954,164.322,229.966,160.605,229.966z"/>
	<path style="fill:#3E3E42;" d="M201.629,229.966h-11.148c-3.717,0-6.729-3.012-6.729-6.729V212.09c0-3.717,3.012-6.729,6.729-6.729
		h11.148c3.717,0,6.729,3.012,6.729,6.729v11.148C208.358,226.954,205.346,229.966,201.629,229.966z"/>
	<path style="fill:#3E3E42;" d="M242.655,229.966h-11.148c-3.717,0-6.729-3.012-6.729-6.729V212.09c0-3.717,3.012-6.729,6.729-6.729
		h11.148c3.717,0,6.729,3.012,6.729,6.729v11.148C249.384,226.954,246.371,229.966,242.655,229.966z"/>
	<path style="fill:#3E3E42;" d="M283.679,229.966h-11.148c-3.717,0-6.729-3.012-6.729-6.729V212.09c0-3.717,3.012-6.729,6.729-6.729
		h11.148c3.717,0,6.729,3.012,6.729,6.729v11.148C290.408,226.954,287.396,229.966,283.679,229.966z"/>
	<path style="fill:#3E3E42;" d="M324.704,229.966h-11.148c-3.717,0-6.729-3.012-6.729-6.729V212.09c0-3.717,3.012-6.729,6.729-6.729
		h11.148c3.717,0,6.729,3.012,6.729,6.729v11.148C331.433,226.954,328.42,229.966,324.704,229.966z"/>
	<path style="fill:#3E3E42;" d="M141.347,265.928h-11.148c-3.717,0-6.729-3.012-6.729-6.729v-11.148
		c0-3.717,3.012-6.729,6.729-6.729h11.148c3.717,0,6.729,3.012,6.729,6.729v11.148C148.076,262.916,145.064,265.928,141.347,265.928
		z"/>
	<path style="fill:#3E3E42;" d="M189.1,259.199c0,3.717-3.012,6.729-6.729,6.729h-11.148c-3.717,0-6.729-3.012-6.729-6.729v-11.148
		c0-3.717,3.012-6.729,6.729-6.729h11.148c3.717,0,6.729,3.012,6.729,6.729V259.199z"/>
	<path style="fill:#3E3E42;" d="M230.125,259.199c0,3.717-3.012,6.729-6.729,6.729h-11.148c-3.717,0-6.729-3.012-6.729-6.729
		v-11.148c0-3.717,3.012-6.729,6.729-6.729h11.148c3.717,0,6.729,3.012,6.729,6.729V259.199z"/>
	<path style="fill:#3E3E42;" d="M264.421,265.928h-11.148c-3.717,0-6.729-3.012-6.729-6.729v-11.148
		c0-3.717,3.012-6.729,6.729-6.729h11.148c3.717,0,6.729,3.012,6.729,6.729v11.148C271.15,262.916,268.137,265.928,264.421,265.928z
		"/>
	<path style="fill:#3E3E42;" d="M305.446,265.928h-11.148c-3.717,0-6.729-3.012-6.729-6.729v-11.148
		c0-3.717,3.012-6.729,6.729-6.729h11.148c3.717,0,6.729,3.012,6.729,6.729v11.148C312.175,262.916,309.162,265.928,305.446,265.928
		z"/>
	<path style="fill:#3E3E42;" d="M353.199,259.199c0,3.717-3.012,6.729-6.729,6.729h-11.148c-3.717,0-6.729-3.012-6.729-6.729
		v-11.148c0-3.717,3.012-6.729,6.729-6.729h11.148c3.717,0,6.729,3.012,6.729,6.729V259.199z"/>
</g>
<path style="fill:#E1E1E3;" d="M428.157,420.806c-12.813,19.219-34.384,30.764-57.483,30.764H89.913
	c-35.022,0-64.503-26.206-68.61-60.986L9.705,292.331c-0.489-4.142,0.816-8.295,3.588-11.412c2.771-3.117,6.742-4.901,10.913-4.901
	H497.4c5.384,0,10.332,2.964,12.874,7.711s2.262,10.508-0.724,14.989L428.157,420.806z"/>
<path style="fill:#ACACB2;" d="M248.059,276.018V451.57h122.614c23.099,0,44.67-11.545,57.483-30.764l81.391-122.088
	c2.987-4.48,3.266-10.241,0.724-14.989c-2.541-4.747-7.488-7.711-12.874-7.711H248.059L248.059,276.018z"/>
<circle style="fill:#2D2E30;" cx="96.377" cy="327.051" r="21.869"/>
<path style="fill:#57565C;" d="M96.377,348.915c-12.078,0-21.869-9.791-21.869-21.869c0-12.078,9.791-21.869,21.869-21.869V348.915z
	"/>
<g>
	<circle style="fill:#2D2E30;" cx="172.217" cy="327.051" r="21.869"/>
	<circle style="fill:#2D2E30;" cx="248.064" cy="327.051" r="21.869"/>
	<circle style="fill:#2D2E30;" cx="323.899" cy="327.051" r="21.869"/>
	<circle style="fill:#2D2E30;" cx="399.746" cy="327.051" r="21.869"/>
</g>
<path style="fill:#5EC5EA;" d="M254.89,472.618c-12.67,0-24.58-4.932-33.538-13.892c-2.603-2.603-6.065-4.037-9.747-4.037
	c-3.682,0-7.144,1.433-9.747,4.037c-8.958,8.958-20.869,13.892-33.538,13.892s-24.58-4.932-33.538-13.892
	c-5.373-5.373-14.12-5.374-19.495,0c-8.957,8.958-20.868,13.892-33.537,13.892c-12.668,0-24.58-4.932-33.537-13.892
	c-2.603-2.603-6.065-4.037-9.747-4.037c-3.682,0-7.144,1.433-9.748,4.037c-6.569,6.569-17.221,6.569-23.79,0s-6.57-17.221,0-23.79
	c8.958-8.958,20.869-13.892,33.537-13.892c12.67,0,24.58,4.932,33.538,13.892c2.603,2.603,6.065,4.037,9.747,4.037
	c3.682,0,7.144-1.433,9.747-4.037c8.958-8.958,20.869-13.892,33.538-13.892s24.58,4.932,33.538,13.892
	c2.603,2.603,6.065,4.037,9.747,4.037c3.682,0,7.144-1.433,9.747-4.037c8.958-8.958,20.869-13.892,33.538-13.892
	s24.58,4.932,33.538,13.892c5.373,5.373,14.12,5.375,19.495,0c18.491-18.493,48.583-18.493,67.075,0
	c2.604,2.603,6.065,4.037,9.747,4.037s7.143-1.433,9.747-4.037c18.491-18.493,48.583-18.493,67.075,0
	c2.603,2.603,6.065,4.037,9.747,4.037s7.143-1.433,9.747-4.037c18.491-18.493,48.583-18.493,67.075,0
	c6.57,6.569,6.57,17.221,0,23.79c-6.569,6.569-17.221,6.569-23.79,0c-2.604-2.603-6.065-4.037-9.747-4.037s-7.143,1.433-9.747,4.037
	c-18.491,18.493-48.583,18.493-67.075,0c-2.604-2.603-6.065-4.037-9.747-4.037s-7.143,1.433-9.747,4.037
	c-18.491,18.493-48.583,18.493-67.075,0c-5.375-5.373-14.12-5.373-19.495,0C279.47,467.685,267.559,472.618,254.89,472.618z"/>
<path style="fill:#9D2217;" d="M457.392,376.953H19.695l1.609,13.632c0.082,0.695,0.192,1.381,0.294,2.069h425.326L457.392,376.953z
	"/>
<path style="fill:#DE3205;" d="M248.059,376.953H19.695l1.609,13.632c0.082,0.695,0.191,1.381,0.293,2.069h226.462V376.953z"/>
<path style="fill:#E1E1E3;" d="M248.059,160.504H54.882c-9.29,0-16.822,7.532-16.822,16.822s7.532,16.822,16.822,16.822h193.177
	V160.504z"/>
<g>
	<path style="fill:#57565C;" d="M172.218,348.915c-12.078,0-21.869-9.791-21.869-21.869c0-12.078,9.791-21.869,21.869-21.869
		V348.915z"/>
	<path style="fill:#57565C;" d="M248.059,348.915c-12.078,0-21.869-9.791-21.869-21.869c0-12.078,9.791-21.869,21.869-21.869
		V348.915z"/>
	<path style="fill:#57565C;" d="M323.9,348.915c-12.078,0-21.869-9.791-21.869-21.869c0-12.078,9.791-21.869,21.869-21.869V348.915z
		"/>
	<path style="fill:#57565C;" d="M399.741,348.915c-12.078,0-21.869-9.791-21.869-21.869c0-12.078,9.791-21.869,21.869-21.869
		V348.915z"/>
</g>
</svg>